Patient4_TMGait_0pt6_02_right_30_EMG.mot
version=1
nRows=13
nColumns=33
inDegrees=no
endheader
time	1LAddLong	2LGlutMax	3LGlutMed	4LIliopsoas	5LSemiMemb	6LBicFemLong	7LRecFem	8LVastMed	9LVastLat	10LGasMed	11LTibAnt	12lTibPost	13LPeroneusLong	14LSol	15LExtDigLong	16LFlexDigLong	17RAddLong	18RGlutMax	19RGlutMed	20RIliopsoas	21RSemiMemb	22RBicFemLong	23RRecFem	24RVastMed	25RVastLat	26RGasMed	27RTibAnt	28RTibPost	29RPeroneusLong	30RSol	31RExtDigLong	32RFlexDigLong
36.11	0.025482	-0.000763	0.18051	0.021515	0.035706	0.013275	0.025024	0.016174	0.12146	0.1503	-0.00473	-0.002899	0.21973	-0.14175	-0.045929	-0.006104	0.022583	0.002747	0.071564	0.22949	-0.048218	-0.006866	0.071106	-0.083771	-0.013275	-0.02594	0.10071	-0.001678	0.33203	0.027008	0.003967	-0.014038
36.111	-0.008087	0.013123	0.17822	0.012512	0.046234	0.13412	-0.044861	0.012207	0.27802	0.099182	-0.004425	0.073395	0.31998	0.14481	-0.033264	0.002747	0.077057	-0.009003	0.046844	0.24307	-0.049896	-0.024109	0.065308	-0.11978	-0.003052	-0.02533	0.066681	-0.002136	-0.21973	-0.010681	-0.00473	-0.013428
36.112	0.013275	0.045319	0.066681	0.006866	0.025177	0.16098	-0.013123	-0.001678	0.13901	0.21149	-0.015717	0.14328	0.31555	0.59204	0.036011	0.08728	0.084839	-0.088806	0.038147	0.16266	-0.059052	-0.045624	0.06134	-0.16464	-0.0177	-0.029144	-0.009155	0.003052	-0.49042	-0.02533	-0.001221	-0.012665
36.113	0.011749	0.025177	0.07843	-0.002441	-0.007935	0.057373	-0.002289	-0.005493	-0.022583	0.31082	-0.007172	0.008087	0.46234	0.65124	0.13367	0.080414	0.014343	-0.10834	0.3038	0.11383	-0.056	-0.046692	0.093842	-0.15411	-0.01709	-0.023193	-0.052643	-0.001678	-0.23483	-0.034027	0.005951	-0.018311
36.114	0.005341	-0.001526	0.092316	-0.008545	-0.00946	-0.10712	0.02594	-0.009003	-0.093079	0.29862	0.014801	-0.14465	0.52826	0.74585	0.12238	0.027466	-0.059357	-0.09964	0.42358	0.07431	-0.071564	-0.041656	0.07431	-0.19348	-0.019531	-0.033264	0.027924	-0.001831	-0.031586	-0.004883	-0.001678	-0.009308
36.115	0.014343	-0.017242	0.016937	0.013885	0.000763	-0.017548	0.036774	-0.013885	-0.049133	0.15518	0.033264	0.065918	0.67612	0.53955	0.08255	0.03418	-0.13062	-0.070496	0.56427	-0.048523	-0.062561	-0.03006	0.025177	-0.11459	-0.025177	-0.036316	0.086975	-0.003052	-0.000153	0.005188	-0.002136	-0.00061
36.116	0.010986	0.023499	-0.00946	0.016632	-0.002747	0.03067	0.053711	-0.013428	-0.008698	-0.00351	0.007019	0.036011	0.10376	0.20554	0.010681	0.018921	-0.12024	-0.12039	0.55191	-0.11902	-0.097809	-0.024567	0.019073	-0.0914	0.001678	-0.044556	0.050964	-0.001984	0.049438	0.028687	-0.000916	0.000763
36.117	0.010376	0.002747	0.089417	-0.000305	-0.010071	0.046387	0.05188	-0.005341	-0.001526	-0.10376	-0.015564	0.00412	-1.0718	0.052032	-0.0383	0.034637	-0.076294	-0.13519	0.007172	-0.068359	-0.076294	-0.034332	0.01709	-0.1062	-0.001831	-0.042114	0.032196	-0.004578	0.07843	-0.017853	-0.000305	-0.002747
36.118	0.009308	0.011749	0.045471	0.007629	-0.015564	0.045929	0.031128	-0.01709	0.00824	-0.030823	0.034027	0.041351	-1.1028	-0.32059	-0.2121	0.019989	0.012817	-0.14832	-0.097809	-0.007324	-0.06134	-0.033569	-0.014343	-0.094452	-0.001068	-0.049286	0.025024	-0.003967	0.066681	-0.012512	0.001221	-0.012665
36.119	0.004883	-0.015717	0.031128	-0.00885	-0.010834	0.023041	0.032806	-0.000763	0.061188	-0.020599	0.014038	-0.1001	-0.10773	-0.45242	-0.23407	0.04715	0.08194	-0.19302	-0.336	0.022278	-0.038452	-0.023499	0.029602	-0.090485	0.015411	-0.055542	0.14679	-0.005035	0.027618	-0.010834	0.002899	-0.004883
36.12	0.003204	-0.006256	0.006256	-0.008698	-0.000916	0.03891	0.055389	-0.001221	0.07431	-0.032043	-0.015259	-0.045166	0.27405	-0.29388	-0.16342	0.039825	0.12543	-0.13123	-0.18402	0.011292	-0.021515	0.003662	0.021667	-0.052185	0.002441	-0.065918	0.31876	-0.009766	-0.003967	-0.007477	0.007629	-0.00824
36.121	-0.002899	-0.036011	-0.014496	-0.01236	0.008545	0.040131	0.069733	-0.000763	0.043945	-0.009155	-0.027771	-0.021057	0.003967	0.008545	-0.090027	0.036011	0.12985	-0.13947	-0.079041	0.001068	0.013733	0.008698	0.042419	-0.079803	0.014954	-0.070038	0.50415	-0.00824	-0.022278	-0.013885	0.000458	-0.003815
36.122	-0.002594	-0.069275	0.000763	0.010376	-0.003967	0.024567	0.065765	0.002594	0.023041	-0.023193	-0.029755	-0.007324	-0.071869	-0.084839	0.005341	0.021515	0.1033	-0.058289	-0.036163	-0.04715	0.055542	-0.007477	0.041199	-0.025635	0.026093	-0.072327	0.59036	-0.009003	-0.070038	-0.046539	0.002136	-0.005798
